<svg width="45" height="39" viewBox="0 0 45 39" fill="none" xmlns="http://www.w3.org/2000/svg">
<path d="M4.56079 2.87592C4.56079 1.77866 5.45029 0.88916 6.54755 0.88916H14.0079C15.1051 0.88916 15.9946 1.77866 15.9946 2.87592V17.8537C15.9946 18.4024 15.5499 18.8471 15.0013 18.8471H5.55417C5.00554 18.8471 4.56079 18.4024 4.56079 17.8537V2.87592Z" fill="#113535"/>
<path d="M16.988 2.87592C16.988 1.77866 17.8775 0.88916 18.9748 0.88916H26.4351C27.5324 0.88916 28.4219 1.77866 28.4219 2.87592V17.8537C28.4219 18.4024 27.9771 18.8471 27.4285 18.8471H17.9814C17.4328 18.8471 16.988 18.4024 16.988 17.8537V2.87592Z" fill="#113535"/>
<path d="M29.4153 2.87592C29.4153 1.77866 30.3048 0.88916 31.402 0.88916H38.8624C39.9596 0.88916 40.8491 1.77866 40.8491 2.87592V17.8537C40.8491 18.4024 40.4044 18.8471 39.8557 18.8471H30.4087C29.86 18.8471 29.4153 18.4024 29.4153 17.8537V2.87592Z" fill="#113535"/>
<path fill-rule="evenodd" clip-rule="evenodd" d="M6.44798 23.2794C6.9911 23.2018 7.49428 23.5792 7.57187 24.1223C7.63944 24.5953 7.43026 24.982 7.29184 25.1914C7.13481 25.429 6.92616 25.6501 6.71549 25.8458C6.28963 26.2414 5.71653 26.6597 5.11676 27.0572C3.90795 27.8582 2.45172 28.6648 1.47937 29.1641C0.991329 29.4147 0.392525 29.2223 0.141901 28.7342C-0.108723 28.2462 0.083738 27.6474 0.571775 27.3968C1.50523 26.9174 2.89225 26.1478 4.01934 25.401C4.58752 25.0245 5.05554 24.6761 5.36335 24.3901C5.48287 24.2791 5.55855 24.1954 5.60251 24.1396C5.65647 23.7058 5.99444 23.3442 6.44798 23.2794ZM5.64781 24.073C5.64823 24.0729 5.64606 24.0775 5.64005 24.0871C5.6444 24.0779 5.6474 24.0731 5.64781 24.073Z" fill="#E5B723"/>
<path d="M43.632 28.2806C41.7262 27.3019 37.9454 25.1282 38.0691 24.2629" stroke="#E5B723" stroke-width="1.98676" stroke-linecap="round"/>
<path d="M3.10034 20.5957C3.10034 20.047 3.54509 19.6023 4.09372 19.6023H41.3162C41.8648 19.6023 42.3095 20.047 42.3095 20.5957V36.7073C42.3095 37.8045 41.42 38.694 40.3228 38.694H5.0871C3.98984 38.694 3.10034 37.8045 3.10034 36.7073V20.5957Z" fill="#E5B723"/>
<path d="M22.3835 29.0484C22.3835 29.2062 22.3209 29.3576 22.2093 29.4691C22.0977 29.5807 21.9464 29.6434 21.7886 29.6434C21.6308 29.6434 21.4794 29.5807 21.3679 29.4691C21.2563 29.3576 21.1936 29.2062 21.1936 29.0484C21.1936 28.8906 21.2563 28.7393 21.3679 28.6277C21.4794 28.5162 21.6308 28.4535 21.7886 28.4535C21.9464 28.4535 22.0977 28.5162 22.2093 28.6277C22.3209 28.7393 22.3835 28.8906 22.3835 29.0484Z" fill="#113535"/>
<path d="M19.0399 30.3376H17.9118C18.2315 30.6438 18.6087 30.7962 19.0399 30.8703V30.3376ZM19.0399 29.941V29.2905C19.0399 29.1544 19.0462 29.0196 19.0589 28.8863C18.9121 28.9469 18.7743 29.0272 18.6492 29.1251C18.4116 29.3107 18.1954 29.5745 17.9979 29.941H19.0399ZM26.4801 28.5436C26.331 27.7619 25.905 27.0602 25.2804 26.5671C24.6557 26.0741 23.8743 25.8227 23.0793 25.8591C21.2627 25.9373 19.8332 27.4624 19.8332 29.2905V33.3918C19.8332 33.7864 20.1465 34.1034 20.5222 34.1057H20.5237C20.637 34.1063 20.7487 34.0792 20.8491 34.0268C20.9496 33.9744 21.0357 33.8983 21.1001 33.8051L21.1009 33.8039C21.3337 33.4787 21.8291 33.4628 22.0667 33.8079C22.1952 33.9895 22.4023 34.1057 22.6375 34.1057C22.7498 34.1052 22.8604 34.0777 22.96 34.0255C23.0595 33.9733 23.145 33.898 23.2094 33.8059L23.211 33.8039C23.4434 33.4787 23.9392 33.4628 24.1768 33.8079C24.3053 33.9895 24.5124 34.1057 24.7476 34.1057C24.86 34.1052 24.9706 34.0777 25.0701 34.0255C25.1696 33.9733 25.2552 33.898 25.3196 33.8059L25.3212 33.8039C25.5536 33.4787 26.0494 33.4628 26.287 33.8079C26.4155 33.9895 26.6225 34.1057 26.8578 34.1057C27.2385 34.1057 27.5467 33.8003 27.5519 33.4207C27.5498 33.3694 27.5437 33.3184 27.5336 33.268L26.4813 28.55L26.4801 28.5436Z" fill="#113535"/>
<path d="M26.4801 28.5436C26.331 27.7619 25.905 27.0602 25.2804 26.5671C24.6557 26.0741 23.8743 25.8227 23.0793 25.8591C21.2627 25.9373 19.8332 27.4624 19.8332 29.2905V33.3918C19.8332 33.7864 20.1465 34.1034 20.5222 34.1057H20.5237C20.637 34.1063 20.7487 34.0792 20.8491 34.0268C20.9496 33.9744 21.0357 33.8983 21.1001 33.8051L21.1009 33.8039C21.3337 33.4787 21.8291 33.4628 22.0667 33.8079C22.1952 33.9895 22.4023 34.1057 22.6375 34.1057C22.7498 34.1052 22.8604 34.0777 22.96 34.0255C23.0595 33.9733 23.145 33.898 23.2094 33.8059L23.211 33.8039C23.4434 33.4787 23.9392 33.4628 24.1768 33.8079C24.3053 33.9895 24.5124 34.1057 24.7476 34.1057C24.86 34.1052 24.9706 34.0777 25.0701 34.0255C25.1696 33.9733 25.2552 33.898 25.3196 33.8059L25.3212 33.8039C25.5536 33.4787 26.0494 33.4628 26.287 33.8079C26.4155 33.9895 26.6225 34.1057 26.8578 34.1057C27.2385 34.1057 27.5467 33.8003 27.5519 33.4207C27.5498 33.3694 27.5437 33.3184 27.5336 33.268L26.4813 28.55L26.4801 28.5436Z" fill="#113535"/>
<path d="M19.0399 30.3376H17.9118C18.2315 30.6438 18.6087 30.7962 19.0399 30.8703V30.3376Z" fill="#113535"/>
<path d="M19.0399 29.941V29.2905C19.0399 29.1544 19.0462 29.0196 19.0589 28.8863C18.9121 28.9469 18.7743 29.0272 18.6492 29.1251C18.4116 29.3107 18.1954 29.5745 17.9979 29.941H19.0399Z" fill="#113535"/>
<path fill-rule="evenodd" clip-rule="evenodd" d="M24.6722 23.3964C25.9954 23.4269 26.6436 24.9964 25.8106 25.9753C26.5624 26.5842 27.0752 27.439 27.2584 28.3889L28.3079 33.0951C28.3305 33.1974 28.34 33.3014 28.3448 33.3918L28.3452 33.4017V33.4116C28.3455 33.7064 28.2583 33.9946 28.0945 34.2396C27.9307 34.4846 27.6977 34.6755 27.4252 34.7878C27.1527 34.9002 26.853 34.929 26.5641 34.8706C26.2752 34.8122 26.0102 34.6693 25.8027 34.4599C25.6644 34.599 25.5 34.7093 25.3189 34.7846C25.1379 34.86 24.9437 34.8989 24.7476 34.899C24.5514 34.8992 24.3572 34.8605 24.1761 34.7852C23.995 34.7098 23.8306 34.5993 23.6925 34.4599C23.5542 34.599 23.3898 34.7093 23.2088 34.7846C23.0277 34.86 22.8336 34.8989 22.6375 34.899C22.4413 34.8992 22.247 34.8604 22.0659 34.785C21.8848 34.7095 21.7205 34.5989 21.5824 34.4596C21.4431 34.6006 21.2768 34.7121 21.0935 34.7876C20.9102 34.8631 20.7136 34.901 20.5154 34.899C19.7642 34.8939 19.1637 34.3279 19.0566 33.6187C18.9483 33.6782 18.8267 33.7093 18.7031 33.7091C18.1808 33.7091 17.8282 33.1776 18.0249 32.6921L18.3779 31.8488C18.4227 31.7425 18.4913 31.6509 18.5762 31.5803C18.128 31.4605 17.6925 31.2448 17.3105 30.8592C17.1098 30.6581 17.0416 30.4253 17.0714 30.1885C17.0912 30.0318 17.159 29.8692 17.2038 29.7621L17.2237 29.7137L17.23 29.6978L17.2379 29.6832C17.4866 29.1897 17.7869 28.7919 18.1609 28.5C18.4771 28.254 18.8457 28.0843 19.2382 28.0042C19.3969 26.4547 20.5068 26.0013 20.8136 25.7681C20.8136 24.9193 21.043 23.8327 21.8918 23.8327C22.1139 23.8327 22.3241 23.8803 22.5145 23.9636C22.8159 24.0984 23.1729 24.0469 23.4268 23.8327C23.7606 23.5533 24.1814 23.399 24.6167 23.3964H24.6722ZM17.9118 30.3376H19.0399V30.8703C18.6087 30.7962 18.2315 30.6438 17.9118 30.3376ZM19.0399 29.2905V29.941H17.9979C18.1954 29.5745 18.4116 29.3107 18.6492 29.1251C18.7743 29.0272 18.9121 28.9469 19.0589 28.8863C19.0462 29.0196 19.0399 29.1544 19.0399 29.2905ZM25.2804 26.5671C25.905 27.0602 26.331 27.7619 26.4801 28.5436L26.4813 28.55L27.5336 33.268C27.5437 33.3184 27.5498 33.3694 27.5519 33.4207C27.5467 33.8003 27.2385 34.1057 26.8578 34.1057C26.6225 34.1057 26.4155 33.9895 26.287 33.8079C26.0494 33.4628 25.5536 33.4787 25.3212 33.8039L25.3196 33.8059C25.2552 33.898 25.1696 33.9733 25.0701 34.0255C24.9706 34.0777 24.86 34.1052 24.7476 34.1057C24.5124 34.1057 24.3053 33.9895 24.1768 33.8079C23.9392 33.4628 23.4434 33.4787 23.211 33.8039L23.2094 33.8059C23.145 33.898 23.0595 33.9733 22.96 34.0255C22.8604 34.0777 22.7498 34.1052 22.6375 34.1057C22.4023 34.1057 22.1952 33.9895 22.0667 33.8079C21.8291 33.4628 21.3337 33.4787 21.1009 33.8039L21.1001 33.8051C21.0357 33.8983 20.9496 33.9744 20.8491 34.0268C20.7487 34.0792 20.637 34.1063 20.5237 34.1057H20.5222C20.1465 34.1034 19.8332 33.7864 19.8332 33.3918V29.2905C19.8332 27.4624 21.2627 25.9373 23.0793 25.8591C23.8743 25.8227 24.6557 26.0741 25.2804 26.5671Z" fill="#113535"/>
</svg>
