<svg width="167" height="39" viewBox="0 0 167 39" fill="none" xmlns="http://www.w3.org/2000/svg">
<path d="M152.352 9.38881C152.352 10.2114 152.514 11.0259 152.829 11.7859C153.144 12.5458 153.605 13.2364 154.187 13.818C154.769 14.3996 155.459 14.861 156.219 15.1758C156.979 15.4906 157.794 15.6526 158.616 15.6526C159.439 15.6526 160.253 15.4906 161.013 15.1758C161.773 14.861 162.464 14.3996 163.045 13.818C163.627 13.2364 164.089 12.5458 164.403 11.7859C164.718 11.0259 164.88 10.2114 164.88 9.38881C164.88 8.56624 164.718 7.75172 164.403 6.99176C164.089 6.2318 163.627 5.54128 163.045 4.95963C162.464 4.37798 161.773 3.91659 161.013 3.6018C160.253 3.28702 159.439 3.125 158.616 3.125C157.794 3.125 156.979 3.28702 156.219 3.6018C155.459 3.91659 154.769 4.37798 154.187 4.95963C153.605 5.54128 153.144 6.2318 152.829 6.99176C152.514 7.75172 152.352 8.56624 152.352 9.38881Z" stroke="#121212" stroke-width="1.39196" stroke-linecap="round" stroke-linejoin="round"/>
<path d="M157.224 11.4768V7.3009H158.616C158.985 7.3009 159.339 7.44756 159.601 7.7086C159.862 7.96964 160.008 8.32369 160.008 8.69286C160.008 9.06203 159.862 9.41608 159.601 9.67713C159.339 9.93817 158.985 10.0848 158.616 10.0848M158.616 10.0848H157.224M158.616 10.0848L160.008 11.4768" stroke="#121212" stroke-width="1.39196" stroke-linecap="round" stroke-linejoin="round"/>
<path d="M4.09943 2.79139C4.09943 1.80109 4.90222 0.998291 5.89253 0.998291H12.6257C13.616 0.998291 14.4188 1.80109 14.4188 2.79139V16.3093C14.4188 16.8044 14.0174 17.2058 13.5222 17.2058H4.99598C4.50083 17.2058 4.09943 16.8044 4.09943 16.3093V2.79139Z" fill="#113535"/>
<path d="M15.3154 2.79139C15.3154 1.80109 16.1182 0.998291 17.1085 0.998291H23.8416C24.8319 0.998291 25.6347 1.80109 25.6347 2.79139V16.3093C25.6347 16.8044 25.2333 17.2058 24.7382 17.2058H16.2119C15.7168 17.2058 15.3154 16.8044 15.3154 16.3093V2.79139Z" fill="#113535"/>
<path d="M26.5312 2.79139C26.5312 1.80109 27.334 0.998291 28.3244 0.998291H35.0575C36.0478 0.998291 36.8506 1.80109 36.8506 2.79139V16.3093C36.8506 16.8044 36.4492 17.2058 35.954 17.2058H27.4278C26.9326 17.2058 26.5312 16.8044 26.5312 16.3093V2.79139Z" fill="#113535"/>
<path fill-rule="evenodd" clip-rule="evenodd" d="M5.80275 21.206C6.29293 21.136 6.74706 21.4766 6.81709 21.9668C6.87807 22.3937 6.68928 22.7426 6.56436 22.9317C6.42264 23.1461 6.23432 23.3456 6.04419 23.5222C5.65983 23.8793 5.1426 24.2569 4.60129 24.6156C3.51031 25.3385 2.19602 26.0665 1.31845 26.5171C0.877981 26.7433 0.337545 26.5696 0.111351 26.1292C-0.114845 25.6887 0.0588568 25.1483 0.499323 24.9221C1.34179 24.4894 2.59361 23.7949 3.61084 23.1208C4.12363 22.781 4.54603 22.4665 4.82384 22.2085C4.93171 22.1083 5.00002 22.0328 5.0397 21.9823C5.08839 21.5908 5.39342 21.2645 5.80275 21.206ZM5.08058 21.9223C5.08095 21.9222 5.07899 21.9264 5.07357 21.935C5.07749 21.9267 5.0802 21.9224 5.08058 21.9223Z" fill="#E5B723"/>
<path d="M39.3622 25.7198C37.6422 24.8365 34.23 22.8747 34.3416 22.0938" stroke="#E5B723" stroke-width="1.7931" stroke-linecap="round"/>
<path d="M2.78137 18.784C2.78137 18.2889 3.18277 17.8875 3.67792 17.8875H37.2721C37.7673 17.8875 38.1687 18.2889 38.1687 18.784V33.3251C38.1687 34.3154 37.3659 35.1183 36.3756 35.1183H4.57447C3.58417 35.1183 2.78137 34.3155 2.78137 33.3251V18.784Z" fill="#E5B723"/>
<path d="M20.185 26.4128C20.185 26.5552 20.1284 26.6918 20.0277 26.7925C19.927 26.8932 19.7904 26.9498 19.648 26.9498C19.5056 26.9498 19.369 26.8932 19.2683 26.7925C19.1676 26.6918 19.111 26.5552 19.111 26.4128C19.111 26.2704 19.1676 26.1338 19.2683 26.0331C19.369 25.9324 19.5056 25.8758 19.648 25.8758C19.7904 25.8758 19.927 25.9324 20.0277 26.0331C20.1284 26.1338 20.185 26.2704 20.185 26.4128Z" fill="#113535"/>
<path d="M17.1673 27.5763H16.1492C16.4377 27.8527 16.7781 27.9901 17.1673 28.0571V27.5763ZM17.1673 27.2183V26.6312C17.1673 26.5085 17.173 26.3867 17.1844 26.2665C17.052 26.3212 16.9275 26.3937 16.8146 26.482C16.6002 26.6495 16.4051 26.8876 16.2268 27.2183H17.1673ZM23.8823 25.9572C23.7476 25.2517 23.3632 24.6183 22.7994 24.1733C22.2357 23.7283 21.5304 23.5015 20.8129 23.5344C19.1734 23.6049 17.8832 24.9813 17.8832 26.6312V30.3328C17.8832 30.689 18.166 30.975 18.505 30.9771H18.5065C18.6087 30.9776 18.7095 30.9532 18.8001 30.9059C18.8908 30.8586 18.9685 30.7899 19.0266 30.7058L19.0273 30.7047C19.2375 30.4112 19.6846 30.3969 19.899 30.7083C20.015 30.8723 20.2019 30.9771 20.4141 30.9771C20.5156 30.9766 20.6154 30.9518 20.7052 30.9047C20.795 30.8576 20.8723 30.7896 20.9304 30.7065L20.9318 30.7047C21.1416 30.4112 21.589 30.3969 21.8035 30.7083C21.9195 30.8723 22.1063 30.9771 22.3186 30.9771C22.42 30.9766 22.5198 30.9518 22.6097 30.9047C22.6995 30.8576 22.7767 30.7896 22.8348 30.7065L22.8362 30.7047C23.046 30.4112 23.4935 30.3969 23.7079 30.7083C23.8239 30.8723 24.0108 30.9771 24.2231 30.9771C24.5667 30.9771 24.8449 30.7015 24.8495 30.3589C24.8476 30.3126 24.8421 30.2665 24.8331 30.2211L23.8833 25.9629L23.8823 25.9572Z" fill="#113535"/>
<path d="M23.8823 25.9572C23.7476 25.2517 23.3632 24.6183 22.7994 24.1733C22.2357 23.7283 21.5304 23.5015 20.8129 23.5344C19.1734 23.6049 17.8832 24.9813 17.8832 26.6312V30.3328C17.8832 30.689 18.166 30.975 18.505 30.9771H18.5065C18.6087 30.9776 18.7095 30.9532 18.8001 30.9059C18.8908 30.8586 18.9685 30.7899 19.0266 30.7058L19.0273 30.7047C19.2375 30.4112 19.6846 30.3969 19.899 30.7083C20.015 30.8723 20.2019 30.9771 20.4141 30.9771C20.5156 30.9766 20.6154 30.9518 20.7052 30.9047C20.795 30.8576 20.8723 30.7896 20.9304 30.7065L20.9318 30.7047C21.1416 30.4112 21.589 30.3969 21.8035 30.7083C21.9195 30.8723 22.1063 30.9771 22.3186 30.9771C22.42 30.9766 22.5198 30.9518 22.6097 30.9047C22.6995 30.8576 22.7767 30.7896 22.8348 30.7065L22.8362 30.7047C23.046 30.4112 23.4935 30.3969 23.7079 30.7083C23.8239 30.8723 24.0108 30.9771 24.2231 30.9771C24.5667 30.9771 24.8449 30.7015 24.8495 30.3589C24.8476 30.3126 24.8421 30.2665 24.8331 30.2211L23.8833 25.9629L23.8823 25.9572Z" fill="#113535"/>
<path d="M17.1673 27.5763H16.1492C16.4377 27.8527 16.7781 27.9901 17.1673 28.0571V27.5763Z" fill="#113535"/>
<path d="M17.1673 27.2183V26.6312C17.1673 26.5085 17.173 26.3867 17.1844 26.2665C17.052 26.3212 16.9275 26.3937 16.8146 26.482C16.6002 26.6495 16.4051 26.8876 16.2268 27.2183H17.1673Z" fill="#113535"/>
<path fill-rule="evenodd" clip-rule="evenodd" d="M22.2506 21.3116C23.4448 21.3392 24.0298 22.7557 23.278 23.6392C23.9565 24.1888 24.4193 24.9602 24.5846 25.8176L25.5318 30.065C25.5523 30.1574 25.5608 30.2512 25.5651 30.3328L25.5655 30.3417V30.3507C25.5658 30.6167 25.4871 30.8768 25.3392 31.0979C25.1914 31.3191 24.9812 31.4913 24.7352 31.5927C24.4893 31.6941 24.2188 31.7201 23.958 31.6674C23.6973 31.6148 23.4581 31.4858 23.2708 31.2968C23.146 31.4223 22.9976 31.5219 22.8342 31.5899C22.6708 31.6579 22.4956 31.693 22.3186 31.6931C22.1416 31.6933 21.9662 31.6584 21.8028 31.5903C21.6393 31.5223 21.491 31.4226 21.3664 31.2968C21.2415 31.4223 21.0932 31.5219 20.9298 31.5899C20.7664 31.6579 20.5911 31.693 20.4141 31.6931C20.2371 31.6932 20.0617 31.6583 19.8983 31.5902C19.7348 31.5221 19.5865 31.4223 19.4619 31.2965C19.3362 31.4237 19.1861 31.5244 19.0207 31.5925C18.8553 31.6607 18.6778 31.6949 18.4989 31.6931C17.8209 31.6885 17.2789 31.1776 17.1823 30.5375C17.0846 30.5913 16.9748 30.6194 16.8633 30.6192C16.3919 30.6192 16.0736 30.1395 16.2512 29.7013L16.5698 28.9402C16.6102 28.8443 16.6722 28.7616 16.7488 28.6979C16.3443 28.5898 15.9512 28.395 15.6065 28.0471C15.4253 27.8656 15.3637 27.6554 15.3906 27.4417C15.4085 27.3003 15.4697 27.1535 15.5102 27.0569L15.5281 27.0132L15.5338 26.9989L15.5409 26.9857C15.7654 26.5403 16.0364 26.1813 16.374 25.9178C16.6593 25.6958 16.992 25.5426 17.3462 25.4703C17.4894 24.0719 18.4912 23.6627 18.768 23.4522C18.768 22.6861 18.9751 21.7054 19.7411 21.7054C19.9416 21.7054 20.1313 21.7484 20.3032 21.8236C20.5752 21.9453 20.8974 21.8987 21.1265 21.7054C21.4278 21.4533 21.8076 21.3141 22.2005 21.3116H22.2506ZM16.1492 27.5763H17.1673V28.0571C16.7781 27.9901 16.4377 27.8527 16.1492 27.5763ZM17.1673 26.6312V27.2183H16.2268C16.4051 26.8876 16.6002 26.6495 16.8146 26.482C16.9275 26.3937 17.052 26.3212 17.1844 26.2665C17.173 26.3867 17.1673 26.5085 17.1673 26.6312ZM22.7994 24.1733C23.3632 24.6183 23.7476 25.2517 23.8823 25.9572L23.8833 25.9629L24.8331 30.2211C24.8421 30.2665 24.8476 30.3126 24.8495 30.3589C24.8449 30.7015 24.5667 30.9771 24.2231 30.9771C24.0108 30.9771 23.8239 30.8723 23.7079 30.7083C23.4935 30.3969 23.046 30.4112 22.8362 30.7047L22.8348 30.7065C22.7767 30.7896 22.6995 30.8576 22.6097 30.9047C22.5198 30.9518 22.42 30.9766 22.3186 30.9771C22.1063 30.9771 21.9195 30.8723 21.8035 30.7083C21.589 30.3969 21.1416 30.4112 20.9318 30.7047L20.9304 30.7065C20.8723 30.7896 20.795 30.8576 20.7052 30.9047C20.6154 30.9518 20.5156 30.9766 20.4141 30.9771C20.2019 30.9771 20.015 30.8723 19.899 30.7083C19.6846 30.3969 19.2375 30.4112 19.0273 30.7047L19.0266 30.7058C18.9685 30.7899 18.8908 30.8586 18.8001 30.9059C18.7095 30.9532 18.6087 30.9776 18.5065 30.9771H18.505C18.166 30.975 17.8832 30.689 17.8832 30.3328V26.6312C17.8832 24.9813 19.1734 23.6049 20.8129 23.5344C21.5304 23.5015 22.2357 23.7283 22.7994 24.1733Z" fill="#113535"/>
<path d="M59.2398 21.9506H56.8528V30.5756H52.1743V8.55158H59.0488C61.9981 8.55158 64.2153 9.10324 65.7006 10.2066C67.1858 11.2887 67.9284 12.933 67.9284 15.1397C67.9284 16.5825 67.5677 17.7707 66.8463 18.7043C66.1462 19.6378 65.0534 20.4335 63.5682 21.0912L69.2652 30.5756H63.9501L59.2398 21.9506ZM56.8528 18.6406H59.3034C60.5553 18.6406 61.4995 18.3648 62.136 17.8131C62.7725 17.2402 63.0908 16.3491 63.0908 15.1397C63.0908 14.0151 62.7513 13.1983 62.0724 12.689C61.4146 12.1586 60.3749 11.8934 58.9534 11.8934H56.8528V18.6406ZM84.2075 25.8971C84.2075 26.5548 84.303 27.0428 84.4939 27.3611C84.6849 27.6581 85.0031 27.8809 85.4487 28.0294L84.4939 31.0211C83.4967 30.9363 82.6798 30.7029 82.0433 30.3209C81.428 29.939 80.9506 29.3449 80.6111 28.5387C79.5078 30.2361 77.821 31.0848 75.5507 31.0848C73.8745 31.0848 72.5377 30.6074 71.5405 29.6526C70.5645 28.6766 70.0765 27.4141 70.0765 25.8652C70.0765 24.0193 70.7448 22.6083 72.0816 21.6323C73.4183 20.6563 75.3385 20.1683 77.8422 20.1683H79.7836V19.3408C79.7836 18.3011 79.5502 17.5797 79.0834 17.1766C78.6166 16.7734 77.8422 16.5719 76.7601 16.5719C75.5719 16.5719 74.0866 16.8689 72.3043 17.463L71.2859 14.4395C73.3864 13.612 75.4658 13.1983 77.5239 13.1983C79.8154 13.1983 81.5022 13.6969 82.5843 14.6941C83.6664 15.6701 84.2075 17.1341 84.2075 19.0862V25.8971ZM76.7919 27.8385C78.065 27.8385 79.0622 27.2126 79.7836 25.9607V22.7462H78.2877C75.8477 22.7462 74.6277 23.6586 74.6277 25.4833C74.6277 26.2259 74.808 26.8094 75.1687 27.2338C75.5507 27.6369 76.0917 27.8385 76.7919 27.8385ZM95.7565 13.1983C96.8811 13.1983 97.8889 13.368 98.7801 13.7075C99.6924 14.0257 100.552 14.535 101.358 15.2352L99.3848 17.9086C98.8331 17.4842 98.2921 17.1766 97.7616 16.9856C97.2524 16.7947 96.6901 16.6992 96.0748 16.6992C93.6772 16.6992 92.4784 18.5451 92.4784 22.237C92.4784 24.1042 92.7861 25.4409 93.4014 26.2471C94.0167 27.0534 94.8972 27.4566 96.043 27.4566C96.6371 27.4566 97.1781 27.3717 97.6661 27.2019C98.1542 27.011 98.727 26.7033 99.3848 26.279L101.358 29.1115C99.7455 30.427 97.8995 31.0848 95.8202 31.0848C94.1652 31.0848 92.7224 30.7241 91.4918 30.0027C90.2824 29.2813 89.3488 28.2628 88.6911 26.9473C88.0333 25.6106 87.7044 24.0511 87.7044 22.2688C87.7044 20.4865 88.0333 18.9164 88.6911 17.5585C89.3488 16.1793 90.2824 15.1078 91.4918 14.344C92.7224 13.5802 94.144 13.1983 95.7565 13.1983ZM113.342 13.1983C114.806 13.1983 115.952 13.6544 116.779 14.5668C117.628 15.4579 118.052 16.6992 118.052 18.2905V30.5756H113.533V19.0543C113.533 18.142 113.374 17.5055 113.056 17.1447C112.737 16.7628 112.281 16.5719 111.687 16.5719C110.499 16.5719 109.417 17.3463 108.441 18.8952V30.5756H103.921V6.99207L108.441 6.51468V15.6171C109.12 14.8108 109.852 14.2061 110.637 13.803C111.443 13.3998 112.345 13.1983 113.342 13.1983ZM136.61 21.7596C136.61 21.9718 136.579 22.5553 136.515 23.5101H125.98C126.129 25.0377 126.543 26.1198 127.222 26.7564C127.901 27.3929 128.824 27.7112 129.99 27.7112C130.712 27.7112 131.391 27.5945 132.027 27.3611C132.664 27.1277 133.354 26.7564 134.096 26.2471L135.974 28.7933C134.086 30.3209 131.953 31.0848 129.577 31.0848C126.925 31.0848 124.888 30.2891 123.466 28.6978C122.044 27.1065 121.334 24.9529 121.334 22.237C121.334 20.5184 121.631 18.9801 122.225 17.6221C122.84 16.243 123.721 15.1609 124.866 14.3758C126.033 13.5908 127.413 13.1983 129.004 13.1983C131.401 13.1983 133.269 13.9515 134.605 15.4579C135.942 16.9644 136.61 19.065 136.61 21.7596ZM132.123 20.4865C132.123 17.6858 131.115 16.2854 129.099 16.2854C128.166 16.2854 127.434 16.6355 126.903 17.3357C126.394 18.0147 126.086 19.1286 125.98 20.6775H132.123V20.4865ZM144.083 31.0848C142.704 31.0848 141.632 30.6923 140.868 29.9072C140.104 29.1009 139.722 27.9658 139.722 26.5018V6.99207L144.242 6.48285V26.3745C144.242 27.1171 144.549 27.4884 145.165 27.4884C145.504 27.4884 145.801 27.4247 146.056 27.2974L146.979 30.5119C146.109 30.8938 145.144 31.0848 144.083 31.0848Z" fill="#121212"/>
</svg>
