<svg width="168" height="39" viewBox="0 0 168 39" fill="none" xmlns="http://www.w3.org/2000/svg">
<path d="M152.862 9.28652C152.862 10.1091 153.024 10.9236 153.339 11.6836C153.654 12.4435 154.115 13.1341 154.697 13.7157C155.279 14.2974 155.969 14.7587 156.729 15.0735C157.489 15.3883 158.304 15.5503 159.126 15.5503C159.949 15.5503 160.763 15.3883 161.523 15.0735C162.283 14.7587 162.974 14.2974 163.555 13.7157C164.137 13.1341 164.598 12.4435 164.913 11.6836C165.228 10.9236 165.39 10.1091 165.39 9.28652C165.39 8.46394 165.228 7.64942 164.913 6.88946C164.598 6.1295 164.137 5.43898 163.555 4.85733C162.974 4.27568 162.283 3.8143 161.523 3.49951C160.763 3.18472 159.949 3.02271 159.126 3.02271C158.304 3.02271 157.489 3.18472 156.729 3.49951C155.969 3.8143 155.279 4.27568 154.697 4.85733C154.115 5.43898 153.654 6.1295 153.339 6.88946C153.024 7.64942 152.862 8.46394 152.862 9.28652Z" stroke="#F5F5F5" stroke-width="1.39196" stroke-linecap="round" stroke-linejoin="round"/>
<path d="M157.734 11.3745V7.19861H159.126C159.495 7.19861 159.849 7.34526 160.11 7.6063C160.371 7.86735 160.518 8.2214 160.518 8.59057C160.518 8.95974 160.371 9.31379 160.11 9.57483C159.849 9.83587 159.495 9.98253 159.126 9.98253M159.126 9.98253H157.734M159.126 9.98253L160.518 11.3745" stroke="#F5F5F5" stroke-width="1.39196" stroke-linecap="round" stroke-linejoin="round"/>
<path d="M4.60931 2.6891C4.60931 1.69879 5.41211 0.895996 6.40241 0.895996H13.1356C14.1259 0.895996 14.9287 1.69879 14.9287 2.6891V16.207C14.9287 16.7021 14.5273 17.1035 14.0321 17.1035H5.50586C5.01071 17.1035 4.60931 16.7021 4.60931 16.207V2.6891Z" fill="#F5F5F5"/>
<path d="M15.8253 2.6891C15.8253 1.69879 16.6281 0.895996 17.6184 0.895996H24.3515C25.3418 0.895996 26.1446 1.69879 26.1446 2.6891V16.207C26.1446 16.7021 25.7432 17.1035 25.248 17.1035H16.7218C16.2267 17.1035 15.8253 16.7021 15.8253 16.207V2.6891Z" fill="#F5F5F5"/>
<path d="M27.0411 2.6891C27.0411 1.69879 27.8439 0.895996 28.8342 0.895996H35.5674C36.5577 0.895996 37.3605 1.69879 37.3605 2.6891V16.207C37.3605 16.7021 36.9591 17.1035 36.4639 17.1035H27.9377C27.4425 17.1035 27.0411 16.7021 27.0411 16.207V2.6891Z" fill="#F5F5F5"/>
<path fill-rule="evenodd" clip-rule="evenodd" d="M6.31264 21.1037C6.80282 21.0337 7.25695 21.3743 7.32697 21.8645C7.38796 22.2914 7.19917 22.6403 7.07424 22.8294C6.93252 23.0438 6.74421 23.2433 6.55407 23.42C6.16972 23.777 5.65249 24.1546 5.11118 24.5133C4.0202 25.2362 2.70591 25.9642 1.82834 26.4148C1.38787 26.641 0.847433 26.4673 0.621238 26.0269C0.395043 25.5864 0.568744 25.046 1.00921 24.8198C1.85167 24.3871 3.1035 23.6926 4.12073 23.0185C4.63352 22.6787 5.05592 22.3642 5.33373 22.1062C5.4416 22.006 5.50991 21.9305 5.54958 21.88C5.59828 21.4885 5.90331 21.1622 6.31264 21.1037ZM5.59047 21.82C5.59084 21.8199 5.58888 21.8241 5.58346 21.8327C5.58738 21.8244 5.59009 21.8201 5.59047 21.82Z" fill="#F5F5F5"/>
<path d="M39.8721 25.6175C38.1521 24.7342 34.7399 22.7724 34.8515 21.9915" stroke="#F5F5F5" stroke-width="1.7931" stroke-linecap="round"/>
<path fill-rule="evenodd" clip-rule="evenodd" d="M4.18781 17.7852C3.69266 17.7852 3.29126 18.1866 3.29126 18.6817V33.2229C3.29126 34.2132 4.09406 35.016 5.08436 35.016H36.8855C37.8758 35.016 38.6786 34.2132 38.6786 33.2229V18.6817C38.6786 18.1866 38.2772 17.7852 37.782 17.7852H4.18781ZM23.7879 23.5369C24.5396 22.6534 23.9547 21.2369 22.7605 21.2094H22.7104C22.3175 21.2118 21.9377 21.351 21.6364 21.6031C21.4073 21.7964 21.0851 21.843 20.8131 21.7213C20.6412 21.6461 20.4515 21.6031 20.251 21.6031C19.4849 21.6031 19.2779 22.5838 19.2779 23.3499C19.2382 23.3801 19.1835 23.4145 19.1185 23.4552C18.7311 23.6983 17.9788 24.1704 17.8561 25.368C17.5019 25.4404 17.1692 25.5935 16.8839 25.8155C16.5463 26.079 16.2753 26.438 16.0508 26.8834L16.0437 26.8966L16.0379 26.9109L16.02 26.9546C15.9796 27.0512 15.9184 27.198 15.9005 27.3394C15.8736 27.5531 15.9352 27.7633 16.1163 27.9448C16.4611 28.2927 16.8541 28.4875 17.2587 28.5956C17.1821 28.6593 17.1201 28.742 17.0797 28.8379L16.7611 29.599C16.5835 30.0372 16.9018 30.5169 17.3732 30.5169C17.4847 30.5171 17.5945 30.489 17.6922 30.4352C17.7888 31.0753 18.3308 31.5862 19.0088 31.5908C19.1877 31.5926 19.3652 31.5584 19.5306 31.4902C19.696 31.4221 19.846 31.3214 19.9718 31.1942C20.0964 31.32 20.2447 31.4198 20.4082 31.4879C20.5716 31.556 20.747 31.5909 20.924 31.5908C21.101 31.5907 21.2762 31.5556 21.4396 31.4876C21.603 31.4196 21.7514 31.32 21.8763 31.1945C22.0009 31.3203 22.1492 31.42 22.3127 31.488C22.4761 31.5561 22.6515 31.591 22.8285 31.5908C23.0055 31.5907 23.1807 31.5556 23.3441 31.4876C23.5075 31.4196 23.6559 31.32 23.7807 31.1945C23.968 31.3835 24.2072 31.5125 24.4679 31.5652C24.7287 31.6178 24.9992 31.5918 25.2451 31.4904C25.4911 31.389 25.7013 31.2168 25.8491 30.9957C25.997 30.7745 26.0757 30.5144 26.0754 30.2484V30.2394L26.075 30.2305C26.0707 30.1489 26.0621 30.0551 26.0417 29.9627L25.0945 25.7153C24.9292 24.8579 24.4664 24.0865 23.7879 23.5369Z" fill="#F5F5F5"/>
<path d="M59.7497 21.8483H57.3627V30.4733H52.6842V8.44928H59.5587C62.508 8.44928 64.7252 9.00094 66.2105 10.1043C67.6957 11.1864 68.4383 12.8307 68.4383 15.0374C68.4383 16.4802 68.0776 17.6684 67.3562 18.602C66.656 19.5355 65.5633 20.3312 64.0781 20.9889L69.775 30.4733H64.46L59.7497 21.8483ZM57.3627 18.5383H59.8133C61.0652 18.5383 62.0094 18.2625 62.6459 17.7108C63.2824 17.1379 63.6007 16.2468 63.6007 15.0374C63.6007 13.9128 63.2612 13.096 62.5822 12.5867C61.9245 12.0563 60.8848 11.7911 59.4632 11.7911H57.3627V18.5383ZM84.7174 25.7948C84.7174 26.4525 84.8129 26.9405 85.0038 27.2588C85.1948 27.5558 85.513 27.7786 85.9586 27.9271L85.0038 30.9188C84.0066 30.834 83.1897 30.6006 82.5532 30.2187C81.9379 29.8367 81.4605 29.2426 81.121 28.4364C80.0176 30.1338 78.3308 30.9825 76.0605 30.9825C74.3843 30.9825 73.0476 30.5051 72.0504 29.5503C71.0744 28.5743 70.5864 27.3118 70.5864 25.7629C70.5864 23.917 71.2547 22.506 72.5914 21.53C73.9282 20.554 75.8484 20.066 78.3521 20.066H80.2935V19.2385C80.2935 18.1988 80.0601 17.4774 79.5933 17.0743C79.1265 16.6711 78.3521 16.4696 77.27 16.4696C76.0818 16.4696 74.5965 16.7666 72.8142 17.3607L71.7958 14.3372C73.8963 13.5097 75.9757 13.096 78.0338 13.096C80.3253 13.096 82.0121 13.5946 83.0942 14.5918C84.1763 15.5678 84.7174 17.0318 84.7174 18.9839V25.7948ZM77.3018 27.7362C78.5748 27.7362 79.5721 27.1103 80.2935 25.8584V22.6439H78.7976C76.3576 22.6439 75.1376 23.5563 75.1376 25.381C75.1376 26.1236 75.3179 26.7071 75.6786 27.1315C76.0605 27.5346 76.6016 27.7362 77.3018 27.7362ZM96.2664 13.096C97.391 13.096 98.3988 13.2657 99.29 13.6052C100.202 13.9235 101.062 14.4327 101.868 15.1329L99.8947 17.8063C99.343 17.3819 98.802 17.0743 98.2715 16.8833C97.7623 16.6924 97.2 16.5969 96.5847 16.5969C94.1871 16.5969 92.9883 18.4428 92.9883 22.1347C92.9883 24.0019 93.296 25.3386 93.9113 26.1449C94.5266 26.9511 95.4071 27.3543 96.5529 27.3543C97.147 27.3543 97.688 27.2694 98.176 27.0997C98.664 26.9087 99.2369 26.601 99.8947 26.1767L101.868 29.0092C100.255 30.3247 98.4094 30.9825 96.3301 30.9825C94.6751 30.9825 93.2323 30.6218 92.0017 29.9004C90.7923 29.179 89.8587 28.1605 89.2009 26.845C88.5432 25.5083 88.2143 23.9488 88.2143 22.1665C88.2143 20.3842 88.5432 18.8141 89.2009 17.4562C89.8587 16.077 90.7923 15.0056 92.0017 14.2417C93.2323 13.4779 94.6539 13.096 96.2664 13.096ZM113.852 13.096C115.316 13.096 116.462 13.5521 117.289 14.4645C118.138 15.3556 118.562 16.5969 118.562 18.1882V30.4733H114.043V18.952C114.043 18.0397 113.884 17.4032 113.565 17.0425C113.247 16.6605 112.791 16.4696 112.197 16.4696C111.009 16.4696 109.927 17.244 108.951 18.7929V30.4733H104.431V6.88978L108.951 6.41238V15.5148C109.63 14.7085 110.362 14.1038 111.147 13.7007C111.953 13.2975 112.855 13.096 113.852 13.096ZM137.12 21.6573C137.12 21.8695 137.088 22.453 137.025 23.4078H126.49C126.639 24.9354 127.053 26.0175 127.731 26.6541C128.41 27.2906 129.333 27.6089 130.5 27.6089C131.222 27.6089 131.901 27.4922 132.537 27.2588C133.174 27.0254 133.863 26.6541 134.606 26.1449L136.484 28.691C134.595 30.2187 132.463 30.9825 130.087 30.9825C127.434 30.9825 125.398 30.1868 123.976 28.5955C122.554 27.0042 121.844 24.8506 121.844 22.1347C121.844 20.4161 122.141 18.8778 122.735 17.5199C123.35 16.1407 124.231 15.0586 125.376 14.2735C126.543 13.4885 127.922 13.096 129.514 13.096C131.911 13.096 133.779 13.8492 135.115 15.3556C136.452 16.8621 137.12 18.9627 137.12 21.6573ZM132.633 20.3842C132.633 17.5835 131.625 16.1831 129.609 16.1831C128.676 16.1831 127.944 16.5332 127.413 17.2334C126.904 17.9124 126.596 19.0263 126.49 20.5752H132.633V20.3842ZM144.593 30.9825C143.213 30.9825 142.142 30.59 141.378 29.8049C140.614 28.9986 140.232 27.8635 140.232 26.3995V6.88978L144.752 6.38055V26.2722C144.752 27.0148 145.059 27.3861 145.675 27.3861C146.014 27.3861 146.311 27.3224 146.566 27.1951L147.489 30.4096C146.619 30.7915 145.653 30.9825 144.593 30.9825Z" fill="#F5F5F5"/>
</svg>
